<?xml version="1.0" standalone="no"?><!-- Generator: Gravit.io --><svg xmlns="http://www.w3.org/2000/svg" xmlns:xlink="http://www.w3.org/1999/xlink" style="isolation:isolate" viewBox="0 0 16 16" width="16" height="16"><defs><clipPath id="_clipPath_q4ZDA6EtGoRQGYlULuqUouRxabk0DQen"><rect width="16" height="16"/></clipPath></defs><g clip-path="url(#_clipPath_q4ZDA6EtGoRQGYlULuqUouRxabk0DQen)"><path d=" M 1 1 L 5 1 L 5 5 L 1 5 L 1 1 Z  M 2 2 L 4 2 L 4 4 L 2 4 L 2 2 Z " fill-rule="evenodd" fill="rgb(141,165,243)"/><path d=" M 6 1 L 10 1 L 10 5 L 6 5 L 6 1 Z  M 7 2 L 9 2 L 9 4 L 7 4 L 7 2 Z " fill-rule="evenodd" fill="rgb(141,165,243)"/><path d=" M 11 1 L 15 1 L 15 5 L 11 5 L 11 1 Z  M 12 2 L 14 2 L 14 4 L 12 4 L 12 2 Z " fill-rule="evenodd" fill="rgb(141,165,243)"/><path d=" M 1 11 L 5 11 L 5 15 L 1 15 L 1 11 Z  M 2 12 L 4 12 L 4 14 L 2 14 L 2 12 Z " fill-rule="evenodd" fill="rgb(141,165,243)"/><path d=" M 6 11 L 15 11 L 15 15 L 6 15 L 6 11 Z  M 7 12 L 14 12 L 14 14 L 7 14 L 7 12 Z " fill-rule="evenodd" fill="rgb(141,165,243)"/><path d=" M 1 6 L 15 6 L 15 10 L 1 10 L 1 6 Z  M 2 7 L 14 7 L 14 9 L 2 9 L 2 7 Z " fill-rule="evenodd" fill="rgb(141,165,243)"/></g></svg>